<svg id="Layer_1" data-name="Layer 1" xmlns="http://www.w3.org/2000/svg" viewBox="0 0 376.94 376.81"><defs><style>.cls-1{fill:#29afca;}.cls-2{fill:#091a33;}.cls-3{fill:#fcfdfd;}.cls-4,.cls-5,.cls-6,.cls-7{fill:none;stroke:#091a33;stroke-linecap:round;stroke-miterlimit:10;stroke-width:4px;}.cls-5{stroke-dasharray:8.93 13.39 0 0;}.cls-6{stroke-dasharray:10.85 16.27 0 0;}.cls-7{stroke-dasharray:10 10 10 10;}</style></defs><path class="cls-1" d="M312.14,376.81H63.89c-.19-.25-.34-.68-.57-.72-19.08-3.56-34.66-12.42-46.95-27.93C6.46,335.66.44,321.81.33,306.32-.14,235.41.08,164.48.1,93.56c0-11.11-.67-22.27,1.46-33.29C8.23,25.72,39.22.34,75.27,0c16.11-.13,32.22.09,48.33.09,59.62,0,119.24-.21,178.85.1,31,.16,52.73,15.93,67.24,42.56,3.74,6.86,4.48,14.77,7.25,22V312c-1.6.77-1.51,2.57-1.72,3.78-2.79,15.74-10.58,28.89-21.38,40.22-8.59,9-19.45,14.62-31.4,18C319,375,315.57,375.89,312.14,376.81ZM189.67,369q53.58,0,107.15,0c6.59,0,13.2.19,19.7-1.43q31.11-7.8,45.49-36.43c5.22-10.36,6.93-21.38,6.93-32.76q0-86.71-.09-173.43c-.05-18.9.82-37.82-.76-56.71-2.79-33.46-29.92-59.63-64-59.91Q188.26,7.35,72.38,8.17C36.82,8.44,8.49,39,8.33,72.46,8,148.71,8.13,225,8.08,301.21a59.73,59.73,0,0,0,1.73,16.15c4.56,16.61,12.58,30.87,27.28,40.41A69.23,69.23,0,0,0,75.55,369Q132.61,368.89,189.67,369Z"/><path class="cls-2" d="M189.67,369q-57.06,0-114.12,0a69.23,69.23,0,0,1-38.46-11.21c-14.7-9.54-22.72-23.8-27.28-40.41a59.73,59.73,0,0,1-1.73-16.15C8.13,225,8,148.71,8.33,72.46,8.49,39,36.82,8.44,72.38,8.17q115.88-.86,231.74.09c34.05.28,61.18,26.45,64,59.91,1.58,18.89.71,37.81.76,56.71q.19,86.72.09,173.43c0,11.38-1.71,22.4-6.93,32.76q-14.44,28.69-45.49,36.43c-6.5,1.62-13.11,1.43-19.7,1.43Q243.24,369,189.67,369ZM304.22,145.57l-.08-.07,14.07-31.71c4.38-9.86,2.53-23.44-9.2-29.12-3.1-1.5-6.11-3.19-9.1-4.9-17.72-10.09-35.31-20.44-53.18-30.26-12.31-6.76-22.56-.08-27.82,10.54-6.22,12.53-11.4,25.58-17.13,38.36-2.65,5.91-5.55,11.72-8.33,17.58l-1.81-.3c0-7.59.05-15.18,0-22.77-.05-4.92-.46-5-4.58-2.64-17.12,10-34,20.56-51.54,29.82-2.29,1.21-4.06,2.6-3.93,5.58.45,9.51-1.34,18.84-2.5,28.21-.18,1.49-.4,2.54,1.07,3.3a239.17,239.17,0,0,1,28.42,17.06c9.64,6.79,20.22,12.08,30.67,17.33,9.47,4.75,13,11.16,11.06,21.21-.79,4.17,1.59,4.54,4.68,3.18a31.42,31.42,0,0,0,4.21-2.63q16.51-10.68,33-21.35c1.49-1,2.88-2.08,5-1,1.89,1,4.36,4.28,5.67,2.31,1.75-2.63-3.43-2.73-4-5.6L285.7,163.9c1.52,1.77-.07,4.19,1.89,5.83.75-8.52,5.65-13.72,15.48-16.24,0,15.43,0,30.7,0,46,0,.94.32,2.17-.85,2.63-7.16,2.83-12.31,11.9-22.21,6.6.3,3.43,3.57,3.22,4.76,5.28-.79.72-1.65,1.48-2.48,2.26-1.12,1.05-3.89,1.68-2.74,3.42,1.51,2.27,3.25-.22,4.46-1.19,2.55-2.06,4.37-2,6.62.58,4,4.46,8.17,8.73,12.46,12.89,2.45,2.38,3.51,4.1-.43,6-1.5.73-3.54,1.68-3.48,4.45,3-.39,4.88-2.12,6.93-3.37,1.5-.91,2.51-.62,3.39.58,3.13,4.3,1.42,13.34-3,16.5-5.61,4-11.53,7.46-17.34,11.12-16.76,10.57-33.34,21.42-49.92,32.27-7.74,5.07-16,4.46-23.29-2.16a22,22,0,0,0,3.32-2.2c1.61-1.52,6-2.12,4.27-4.67s-4.3,1.06-5.82,2.36c-3.51,3-6.06,2.11-8.65-.88-1.84-2.11-3.5-4.39-5.46-6.37-1.25-1.26-2.61-4.07-4.69-2-1.74,1.73.8,3.07,1.87,4.39a34.87,34.87,0,0,1,2.79,3.42c4,6.34,9.24,11.44,16.27,14.32,6.24,2.56,12.87,4,18.7-.42,7.25-5.45,15.35-9.46,22.77-14.65,14.75-10.33,30-19.94,45.07-29.81,10.77-7.06,12.22-19.29,3.29-28.48-5.09-5.24-10.19-10.48-15.42-15.57-2.05-2-2.38-3.15.44-4.71,3.6-2,6.91-4.47,10.45-6.56a4.16,4.16,0,0,0,2.25-4c0-17.6-.08-35.21,0-52.81C307.39,146.21,306.45,145.41,304.22,145.57ZM128.71,282.84h.06V317.7c0,2.57,0,4.44,3.52,2.26,13.72-8.5,27.61-16.71,41.4-25.1,8.88-5.39,18.38-10.3,18.6-22.81.1-6.21,2-13.15-4.22-17.32-3.81-2.55-2.92-4.31-.69-6.65,3.53-3.7,4.8-8.16,4.83-13.1,0-8,.09-15.94.06-23.9,0-1.07.66-2.54-.71-3.13-1.21-.52-2.09.69-3.05,1.27-6,3.61-11.89,7.26-17.85,10.86-12.78,7.71-25.48,15.54-38.43,22.95-2.5,1.44-3.59,2.62-3.57,5.45C128.78,259.93,128.71,271.38,128.71,282.84ZM57.54,207.22c-.18,1.48-.32,2.11-.33,2.74q-.12,36-.25,72c0,1.84,1.19,2.47,2.53,3.27,6.14,3.65,12.22,7.39,18.32,11.11,12.62,7.68,25.19,15.43,37.89,23,1.78,1.06,5.34,4.61,5.34-1.65q0-34.37,0-68.71c0-1.91-.24-3.42-2.16-4.58C98.64,232.18,78.4,219.87,57.54,207.22ZM188,200.74c-21-12.59-41.29-24.77-61.57-37.06-2-1.2-3.06,0-4.41.79q-18.93,11.44-37.84,22.9c-7.31,4.41-14.67,8.74-22.41,13.35,10.15,6.14,19.87,11.82,29.39,17.83,10.07,6.35,20.84,11.57,30.38,18.8,2,1.48,4.2,1,6.38-.29C147.71,225,167.56,213.08,188,200.74Zm50.24,81c-.46-.39-1.08-1.21-1.37-1.11a17.8,17.8,0,0,0-7.52,5c-.2.22.2,1.45.57,1.61,1.45.62,2.49-.55,3.45-1.32C235,284.67,237.3,284.18,238.23,281.74Zm3.12-35.64c2-1.75,5.39-2.33,6.58-5.52.16-.42-1.06-1.6-1.82-1.2-2.62,1.38-5.8,2.26-6.78,5.56C239.08,245.78,239.94,246.35,241.35,246.1Zm20.11-13.83c0-.94-.48-1.82-1.42-1.41a22,22,0,0,0-7.22,4.91c-.64.67-.08,1.57.85,1.86C254.82,238,261.33,233.47,261.46,232.27Zm32.88,13.4c-.2-.72-.65-1.45-1.31-1.17a22.58,22.58,0,0,0-7.69,5,1,1,0,0,0,.54,1.56c2.41.58,3.82-1.42,5.56-2.46C292.63,247.91,294.22,247.43,294.34,245.67Zm-14,9.14c-.13-.65-.31-1.23-1.12-1.36-1.24-.2-8.07,4.68-8.08,5.83,0,.68.23,1.24,1.05,1.36C273.27,260.79,280.27,255.82,280.32,254.81Zm-27.81,18c-.92-.93-1.78-1.33-2.75-.78a28.93,28.93,0,0,0-4.12,2.7c-1,.83-3.49,1.23-2.42,3s2.7.06,3.81-.7C248.86,275.77,251.16,275,252.51,272.79Zm36.91-78.3c-.79-1.59,1.24-4.72-1.84-4.72-2.51,0-1.31,2.88-1.4,4.47-.1,1.82-.78,4.84,1.88,4.78C290.45,199,288.66,196,289.42,194.49Zm-34.24,74.19c5.46.89,8-2.17,10.86-4.14.53-.36.4-1.18-.18-1.7a1.33,1.33,0,0,0-1.78,0C261.43,264.54,258.8,266.29,255.18,268.68ZM221.51,258c-.1-.31-.12-.72-.33-.9-1.46-1.25-2.49.07-3.45.78-1.77,1.33-4.37,1.82-4.83,4.52,0,.17.38.5.65.62C214.8,263.64,221.51,259.38,221.51,258Zm-13,8.19c-.42-.33-1-1.11-1.36-1-2.46.8-4.92,1.72-6.33,4.1a1.83,1.83,0,0,0,.29,1.7c1.4.66,2.5-.45,3.5-1.12C206,268.94,208,268.51,208.52,266.21ZM267.69,229c2.46-1.8,5.42-2.75,7.13-5.32.29-.43-.32-1.49-1-1.38-3.09.49-5,2.91-7.26,4.76a1.37,1.37,0,0,0-.05,1.31C266.68,228.72,267.27,228.82,267.69,229Zm-2.93-29.92a16.15,16.15,0,0,0-6.8-4.28c-.61-.19-1.32.81-1,1.32,1.42,2.6,4,3.58,6.67,4.33C264.18,200.64,264.79,200.12,264.76,199.1Zm-30.18,50.54c-.07-.67-.24-1.24-1.05-1.36-1.06-.17-7.36,4.08-7.44,5.09-.05.65.11,1.26.94,1.39S234.45,250.44,234.58,249.64Zm35.68-47.85c-1-.29-1.74.27-1.62.79.68,3,3.79,3.1,5.81,4.5.51.36,1.51-.42,1.26-1C274.64,203.66,271.91,203.25,270.26,201.79Zm19.38-21.93c-.59-1.49,1-4.29-1.55-4.39-2.26-.09-1.36,2.57-1.33,4,0,1.6-1,4.38,1.45,4.47C290.44,184,289.13,181.32,289.64,179.86Z"/><path class="cls-1" d="M304.22,145.57c2.23-.16,3.17.64,3.16,3.11-.09,17.6-.05,35.21,0,52.81a4.16,4.16,0,0,1-2.25,4c-3.54,2.09-6.85,4.58-10.45,6.56-2.82,1.56-2.49,2.72-.44,4.71,5.23,5.09,10.33,10.33,15.42,15.57,8.93,9.19,7.48,21.42-3.29,28.48-15.07,9.87-30.32,19.48-45.07,29.81-7.42,5.19-15.52,9.2-22.77,14.65-5.83,4.39-12.46,3-18.7.42-7-2.88-12.28-8-16.27-14.32a34.87,34.87,0,0,0-2.79-3.42c-1.07-1.32-3.61-2.66-1.87-4.39,2.08-2.07,3.44.74,4.69,2,2,2,3.62,4.26,5.46,6.37,2.59,3,5.14,3.87,8.65.88,1.52-1.3,4-5,5.82-2.36s-2.66,3.15-4.27,4.67a22,22,0,0,1-3.32,2.2c7.3,6.62,15.55,7.23,23.29,2.16,16.58-10.85,33.16-21.7,49.92-32.27,5.81-3.66,11.73-7.13,17.34-11.12,4.44-3.16,6.15-12.2,3-16.5-.88-1.2-1.89-1.49-3.39-.58-2.05,1.25-3.93,3-6.93,3.37-.06-2.77,2-3.72,3.48-4.45,3.94-1.94,2.88-3.66.43-6-4.29-4.16-8.5-8.43-12.46-12.89-2.25-2.54-4.07-2.64-6.62-.58-1.21,1-2.95,3.46-4.46,1.19-1.15-1.74,1.62-2.37,2.74-3.42.83-.78,1.69-1.54,2.48-2.26-1.19-2.06-4.46-1.85-4.76-5.28,9.9,5.3,15.05-3.77,22.21-6.6,1.17-.46.84-1.69.85-2.63,0-15.26,0-30.53,0-46-9.83,2.52-14.73,7.72-15.48,16.24-2-1.64-.37-4.06-1.89-5.83l-36.83,23.81c.6,2.87,5.78,3,4,5.6-1.31,2-3.78-1.35-5.67-2.31-2.13-1.09-3.52,0-5,1q-16.54,10.63-33,21.35A31.42,31.42,0,0,1,205,216c-3.09,1.36-5.47,1-4.68-3.18,1.89-10-1.59-16.46-11.06-21.21-10.45-5.25-21-10.54-30.67-17.33a239.17,239.17,0,0,0-28.42-17.06c-1.47-.76-1.25-1.81-1.07-3.3,1.16-9.37,3-18.7,2.5-28.21-.13-3,1.64-4.37,3.93-5.58,17.57-9.26,34.42-19.78,51.54-29.82,4.12-2.41,4.53-2.28,4.58,2.64.07,7.59,0,15.18,0,22.77l1.81.3c2.78-5.86,5.68-11.67,8.33-17.58,5.73-12.78,10.91-25.83,17.13-38.36,5.26-10.62,15.51-17.3,27.82-10.54,17.87,9.82,35.46,20.17,53.18,30.26,3,1.71,6,3.4,9.1,4.9,11.73,5.68,13.58,19.26,9.2,29.12L304.14,145.5l-.41.19.45.32ZM237.1,189c.67-.34,1.25-.57,1.76-.9q26-16.8,52-33.62a44.41,44.41,0,0,0,4-3c2-1.66,2.31-3-.49-4.33s-5.47-3.13-8.16-4.76a1.5,1.5,0,0,1-.75-2.1c.5-.87,1.26-.7,2.11-.24,2.33,1.24,4.89,2.14,7,3.62,3.11,2.13,4.47,1.1,5.78-2,2.56-6.11,5.42-12.11,8.24-18.12,3.65-7.76,3.68-7.74-3.36-12.38-.42-.27-.88-.48-1.28-.76a1.58,1.58,0,0,1-.73-2.12,1.48,1.48,0,0,1,2.13-.61,54.15,54.15,0,0,1,5.27,2.8c2.6,1.63,3.56.74,4.53-2,2.24-6.24-1.34-16.44-7.77-19.58-7.23-3.54-14.29-7.45-21.29-11.42-13.84-7.85-27.55-15.93-41.4-23.75a14.48,14.48,0,0,0-18.49,3.39c-2,2.59-3.11,5.21,1.22,6.92a32.44,32.44,0,0,1,5.21,2.9c.95.59,2.12,1.21,1.28,2.73s-1.85,1-2.93.37c-1.75-1-3.6-1.74-5.24-2.85-2.61-1.77-3.92-1.14-5.14,1.73-3.17,7.48-6.62,14.84-10,22.22-1,2.08-1.83,3.93.81,5.53.88.53,2,1.61,1,2.89-.78,1-1.79.27-2.64-.18-4.52-2.41-4,2.49-4.85,4-1.21,2.14,1.43,2.13,3,2.32,1,.11,1.94.46,2.92.58,3.24.4,6.84,1.52,7.42-3.65.15-1.33,1.33-1.2,2.35-1A10.83,10.83,0,0,1,229.4,113c-.29,3.2.64,5.64,3.35,7.16,4.72,2.67,8.23,6.66,12.07,10.32a21.94,21.94,0,0,0,5.46,4.24c3.58,1.7,7.2.59,10-1.78,3-2.54,1-4.53-1.54-6.09a1.21,1.21,0,0,1-.44-1.72,1.58,1.58,0,0,1,2.17-.59c2.42,1.38,5.86,1.74,6.95,4.43,1,2.51-2.58,2.36-3.6,3.91-.18.27-.27.61-.46.88-4.84,6.55-6.94,14.49-10.9,21.54-3.15,5.62-6.37,11.41-8.46,17.7C242.21,178.42,237.33,182.54,237.1,189Z"/><path class="cls-1" d="M128.71,282.84c0-11.46.07-22.91-.05-34.36,0-2.83,1.07-4,3.57-5.45,13-7.41,25.65-15.24,38.43-22.95,6-3.6,11.89-7.25,17.85-10.86,1-.58,1.84-1.79,3.05-1.27,1.37.59.71,2.06.71,3.13,0,8,0,15.93-.06,23.9,0,4.94-1.3,9.4-4.83,13.1-2.23,2.34-3.12,4.1.69,6.65,6.21,4.17,4.32,11.11,4.22,17.32-.22,12.51-9.72,17.42-18.6,22.81-13.79,8.39-27.68,16.6-41.4,25.1-3.53,2.18-3.52.31-3.52-2.26V282.84Zm16.2-2.22c2.26-6,4.1-10.94,5.91-15.85a5,5,0,0,1,2.44-2.35c5.49-3.43,10.93-7,16.43-10.35,8.33-5.15,12.08-13.79,10.1-24-10,6-19.79,12.26-30,17.75-6.86,3.7-10.51,7.84-9.81,16.45,1,11.71.08,23.56.1,35.34,0,1.6-1,4.95,2.87,2.61,11-6.74,22.15-13.4,33.13-20.26,4.08-2.55,6.27-11.41,4.14-15.67-1.07-2.14-3.07-2.56-5.1-1.82a29.13,29.13,0,0,0-4.77,2.67C162.24,270.09,154.11,275,144.91,280.62Z"/><path class="cls-1" d="M57.54,207.22c20.86,12.65,41.1,25,61.39,37.17,1.92,1.16,2.16,2.67,2.16,4.58q0,34.35,0,68.71c0,6.26-3.56,2.71-5.34,1.65-12.7-7.53-25.27-15.28-37.89-23-6.1-3.72-12.18-7.46-18.32-11.11-1.34-.8-2.53-1.43-2.53-3.27q.15-36,.25-72C57.22,209.33,57.36,208.7,57.54,207.22Zm52.16,94.51c0-14.85,0-28.93,0-43,0-2.58-.93-2.85-3-1.64C96,263.5,85.28,270,74.43,276.25c-2.91,1.68-2.58,3.14-.27,4.52C85.73,287.7,97.38,294.48,109.7,301.73Zm-41-74.52c0,14.81,0,28.68,0,42.56,0,2.47,1.2,2.3,2.8,1.31,10.43-6.43,20.84-12.89,31.31-19.26,3.14-1.9,1.94-3-.42-4.34-5.58-3.23-11.09-6.6-16.61-9.93S74.9,231,68.71,227.21Z"/><path class="cls-3" d="M188,200.74c-20.43,12.34-40.28,24.29-60.08,36.32-2.18,1.33-4.42,1.77-6.38.29-9.54-7.23-20.31-12.45-30.38-18.8-9.52-6-19.24-11.69-29.39-17.83,7.74-4.61,15.1-8.94,22.41-13.35Q103.12,176,122,164.47c1.35-.82,2.42-2,4.41-.79C146.7,176,167,188.15,188,200.74ZM129.2,178.65c-2.54-2-5.1-3-7.73-.13-12.82,6.74-25,14.6-37.82,22.21,13.39,8.14,26.12,15.89,38.83,23.65,1.34.82,2.47,1.36,4.08.37,13-8,26-15.88,39.42-24Z"/><path class="cls-1" d="M238.23,281.74c-.93,2.44-3.25,2.93-4.87,4.21-1,.77-2,1.94-3.45,1.32-.37-.16-.77-1.39-.57-1.61a17.8,17.8,0,0,1,7.52-5C237.15,280.53,237.77,281.35,238.23,281.74Z"/><path class="cls-1" d="M241.35,246.1c-1.41.25-2.27-.32-2-1.16,1-3.3,4.16-4.18,6.78-5.56.76-.4,2,.78,1.82,1.2C246.74,243.77,243.33,244.35,241.35,246.1Z"/><path class="cls-1" d="M261.46,232.27c-.13,1.2-6.64,5.72-7.79,5.36-.93-.29-1.49-1.19-.85-1.86a22,22,0,0,1,7.22-4.91C261,230.45,261.44,231.33,261.46,232.27Z"/><path class="cls-1" d="M294.34,245.67c-.12,1.76-1.71,2.24-2.9,2.94-1.74,1-3.15,3-5.56,2.46a1,1,0,0,1-.54-1.56,22.58,22.58,0,0,1,7.69-5C293.69,244.22,294.14,245,294.34,245.67Z"/><path class="cls-1" d="M280.32,254.82c-.05,1-7.05,6-8.15,5.82-.82-.12-1.05-.68-1.05-1.36,0-1.15,6.84-6,8.08-5.83C280,253.58,280.19,254.16,280.32,254.82Z"/><path class="cls-1" d="M252.51,272.79c-1.35,2.25-3.65,3-5.48,4.23-1.11.76-2.77,2.44-3.81.7s1.39-2.18,2.42-3a28.93,28.93,0,0,1,4.12-2.7C250.73,271.46,251.59,271.86,252.51,272.79Z"/><path class="cls-1" d="M289.42,194.49c-.76,1.54,1,4.48-1.36,4.53-2.66.06-2-3-1.88-4.78.09-1.59-1.11-4.46,1.4-4.47C290.66,189.77,288.63,192.9,289.42,194.49Z"/><path class="cls-1" d="M255.18,268.68c3.62-2.39,6.25-4.14,8.9-5.87a1.33,1.33,0,0,1,1.78,0c.58.52.71,1.34.18,1.7C263.14,266.51,260.64,269.57,255.18,268.68Z"/><path class="cls-1" d="M221.51,258c0,1.36-6.71,5.62-8,5-.27-.12-.68-.45-.65-.62.46-2.7,3.06-3.19,4.83-4.52,1-.71,2-2,3.45-.78C221.39,257.3,221.41,257.71,221.51,258Z"/><path class="cls-1" d="M208.52,266.21c-.51,2.3-2.49,2.73-3.9,3.68-1,.67-2.1,1.78-3.5,1.12a1.83,1.83,0,0,1-.29-1.7c1.41-2.38,3.87-3.3,6.33-4.1C207.48,265.1,208.1,265.88,208.52,266.21Z"/><path class="cls-1" d="M267.69,229c-.42-.2-1-.3-1.19-.63a1.37,1.37,0,0,1,.05-1.31c2.25-1.85,4.17-4.27,7.26-4.76.69-.11,1.3,1,1,1.38C273.11,226.27,270.15,227.22,267.69,229Z"/><path class="cls-1" d="M264.76,199.1c0,1-.58,1.54-1.18,1.37-2.65-.75-5.25-1.73-6.67-4.33-.27-.51.44-1.51,1-1.32A16.15,16.15,0,0,1,264.76,199.1Z"/><path class="cls-1" d="M234.58,249.64c-.13.8-6.71,5.25-7.55,5.12s-1-.74-.94-1.39c.08-1,6.38-5.26,7.44-5.09C234.34,248.4,234.51,249,234.58,249.64Z"/><path class="cls-1" d="M270.26,201.79c1.65,1.46,4.38,1.87,5.45,4.29.25.58-.75,1.36-1.26,1-2-1.4-5.13-1.48-5.81-4.5C268.52,202.06,269.26,201.5,270.26,201.79Z"/><path class="cls-1" d="M289.64,179.86c-.51,1.46.8,4.16-1.43,4.09-2.45-.09-1.41-2.87-1.45-4.47,0-1.44-.93-4.1,1.33-4C290.61,175.57,289.05,178.37,289.64,179.86Z"/><path class="cls-2" d="M237.1,189c.23-6.44,5.11-10.56,6.9-16,2.09-6.29,5.31-12.08,8.46-17.7,4-7,6.06-15,10.9-21.54.19-.27.28-.61.46-.88,1-1.55,4.63-1.4,3.6-3.91-1.09-2.69-4.53-3.05-6.95-4.43a1.58,1.58,0,0,0-2.17.59,1.21,1.21,0,0,0,.44,1.72c2.49,1.56,4.54,3.55,1.54,6.09-2.8,2.37-6.42,3.48-10,1.78a21.94,21.94,0,0,1-5.46-4.24c-3.84-3.66-7.35-7.65-12.07-10.32-2.71-1.52-3.64-4-3.35-7.16a10.83,10.83,0,0,0-8.79-11.47c-1-.16-2.2-.29-2.35,1-.58,5.17-4.18,4-7.42,3.65-1-.12-1.94-.47-2.92-.58-1.58-.19-4.22-.18-3-2.32.84-1.51.33-6.41,4.85-4,.85.45,1.86,1.18,2.64.18,1-1.28-.11-2.36-1-2.89-2.64-1.6-1.77-3.45-.81-5.53,3.4-7.38,6.85-14.74,10-22.22,1.22-2.87,2.53-3.5,5.14-1.73,1.64,1.11,3.49,1.9,5.24,2.85,1.08.59,2.1,1.11,2.93-.37s-.33-2.14-1.28-2.73a32.44,32.44,0,0,0-5.21-2.9c-4.33-1.71-3.25-4.33-1.22-6.92a14.48,14.48,0,0,1,18.49-3.39c13.85,7.82,27.56,15.9,41.4,23.75,7,4,14.06,7.88,21.29,11.42,6.43,3.14,10,13.34,7.77,19.58-1,2.72-1.93,3.61-4.53,2a54.15,54.15,0,0,0-5.27-2.8,1.48,1.48,0,0,0-2.13.61,1.58,1.58,0,0,0,.73,2.12c.4.28.86.49,1.28.76,7,4.64,7,4.62,3.36,12.38-2.82,6-5.68,12-8.24,18.12-1.31,3.14-2.67,4.17-5.78,2-2.16-1.48-4.72-2.38-7-3.62-.85-.46-1.61-.63-2.11.24a1.5,1.5,0,0,0,.75,2.1c2.69,1.63,5.33,3.41,8.16,4.76s2.5,2.67.49,4.33a44.41,44.41,0,0,1-4,3q-26,16.83-52,33.62C238.35,188.41,237.77,188.64,237.1,189Zm60.48-79.29c-1.85,1.94-6.47,1.81-5.44,5.27,1.66,5.54-1.91,10.76-4.5,12-5.56,2.62-1.45,5.55-1.75,8.34,1-2.24,5.34-1.15,4.09-6.44-.83-3.52,2.34-9.92,5.63-12C299.49,114.43,297.79,112.35,297.58,109.69Zm-1.37-6.54c0-1.48-1-2-2.1-2.44-2.07-.87-4.15-1.72-6.2-2.63-.79-.35-1.6-.71-2.18.13-.75,1.09,0,1.89.88,2.4,2.22,1.38,4.48,2.71,6.8,3.93C294.86,105.3,295.94,104.87,296.21,103.15ZM242.54,72.78c-1.06.72-2.65.58-1.62,2.15,2.17,3.3,6.06,3.71,9.26,5.19,1,.45,1.78-1.42,1-2C248.38,76.13,245.34,74.48,242.54,72.78Zm23.83,14.3c-.06-1.42-8.13-6.17-9.37-5.48-1.07.59-1.25,1.69-.26,2.34a87.73,87.73,0,0,0,7.61,4.44C265.45,89,266.15,88.19,266.37,87.08Zm6.42,44.51c-1.91-.09-1.71,1.2-1.49,2.34s7.51,4.93,8.42,4.53c1.08-.48,1.5-1.47.68-2.36C278.33,133.84,275.44,132.88,272.79,131.59Zm-.25-42c-.49.27-1.15.42-1.22.72-.13.56-.16,1.51.17,1.76,2.2,1.65,4.46,3.22,6.81,4.65a1.57,1.57,0,0,0,2.08-.8,1.27,1.27,0,0,0-.3-1.75C277.61,92.56,275.09,91.09,272.54,89.55Zm-31.75,24.68c-.18-1.85-7-6.09-8.44-5.52a1.59,1.59,0,0,0-1.1,1.93c.25,1.2,7.75,5.48,8.68,4.87C240.39,115.2,240.61,114.51,240.79,114.23Zm12.15,9.67c2.64-5.15-2.48-4.86-4.56-6.51-.87-.69-2.42-1.84-3.3,0-.75,1.58.75,2.31,1.85,3C248.86,121.58,250.85,122.69,252.94,123.9Z"/><path class="cls-2" d="M304.22,145.57l0,.44-.45-.32.41-.19Z"/><path class="cls-2" d="M144.91,280.62c9.2-5.58,17.33-10.53,25.48-15.46a29.13,29.13,0,0,1,4.77-2.67c2-.74,4-.32,5.1,1.82,2.13,4.26-.06,13.12-4.14,15.67-11,6.86-22.08,13.52-33.13,20.26-3.83,2.34-2.87-1-2.87-2.61,0-11.78.86-23.63-.1-35.34-.7-8.61,2.95-12.75,9.81-16.45,10.17-5.49,19.93-11.76,30-17.75,2,10.19-1.77,18.83-10.1,24-5.5,3.4-10.94,6.92-16.43,10.35a5,5,0,0,0-2.44,2.35C149,269.68,147.17,274.58,144.91,280.62Z"/><path class="cls-2" d="M109.7,301.73c-12.32-7.25-24-14-35.54-21-2.31-1.38-2.64-2.84.27-4.52C85.28,270,96,263.5,106.76,257.07c2-1.21,3-.94,3,1.64C109.68,272.8,109.7,286.88,109.7,301.73Z"/><path class="cls-2" d="M68.71,227.21c6.19,3.75,11.62,7,17.07,10.34s11,6.7,16.61,9.93c2.36,1.37,3.56,2.44.42,4.34-10.47,6.37-20.88,12.83-31.31,19.26-1.6,1-2.8,1.16-2.8-1.31C68.71,255.89,68.71,242,68.71,227.21Z"/><path class="cls-2" d="M129.2,178.65,166,200.72c-13.39,8.15-26.43,16.05-39.42,24-1.61,1-2.74.45-4.08-.37-12.71-7.76-25.44-15.51-38.83-23.65,12.87-7.61,25-15.47,37.82-22.21q0,16.39-.11,32.8c0,2.48.35,5.06,3.47,4.89,2.74-.14,3.6-2.31,3.57-5-.11-9.11-.09-18.22,0-27.32C128.36,182.12,127.77,180.2,129.2,178.65Z"/><path class="cls-1" d="M129.2,178.65c-1.43,1.55-.84,3.47-.84,5.23-.05,9.1-.07,18.21,0,27.32,0,2.7-.83,4.87-3.57,5-3.12.17-3.48-2.41-3.47-4.89q.06-16.41.11-32.8C124.1,175.69,126.66,176.63,129.2,178.65Z"/><path class="cls-3" d="M297.58,109.69c.21,2.66,1.91,4.74-2,7.17-3.29,2.06-6.46,8.46-5.63,12,1.25,5.29-3.06,4.2-4.09,6.44.3-2.79-3.81-5.72,1.75-8.34,2.59-1.22,6.16-6.44,4.5-12C291.11,111.5,295.73,111.63,297.58,109.69Z"/><path class="cls-1" d="M296.21,103.15c-.27,1.72-1.35,2.15-2.8,1.39-2.32-1.22-4.58-2.55-6.8-3.93-.84-.51-1.63-1.31-.88-2.4.58-.84,1.39-.48,2.18-.13,2,.91,4.13,1.76,6.2,2.63C295.2,101.16,296.22,101.67,296.21,103.15Z"/><path class="cls-1" d="M242.54,72.78c2.8,1.7,5.84,3.35,8.63,5.36.79.56,0,2.43-1,2-3.2-1.48-7.09-1.89-9.26-5.19C239.89,73.36,241.48,73.5,242.54,72.78Z"/><path class="cls-1" d="M266.37,87.08c-.22,1.11-.92,1.88-2,1.3a87.73,87.73,0,0,1-7.61-4.44c-1-.65-.81-1.75.26-2.34C258.24,80.91,266.31,85.66,266.37,87.08Z"/><path class="cls-1" d="M272.79,131.59c2.65,1.29,5.54,2.25,7.61,4.51.82.89.4,1.88-.68,2.36-.91.4-8.21-3.51-8.42-4.53S270.88,131.5,272.79,131.59Z"/><path class="cls-1" d="M272.54,89.55c2.55,1.54,5.07,3,7.54,4.58a1.27,1.27,0,0,1,.3,1.75,1.57,1.57,0,0,1-2.08.8c-2.35-1.43-4.61-3-6.81-4.65-.33-.25-.3-1.2-.17-1.76C271.39,90,272.05,89.82,272.54,89.55Z"/><path class="cls-1" d="M240.79,114.23c-.18.28-.4,1-.86,1.28-.93.61-8.43-3.67-8.68-4.87a1.59,1.59,0,0,1,1.1-1.93C233.76,108.14,240.61,112.38,240.79,114.23Z"/><path class="cls-1" d="M252.94,123.9c-2.09-1.21-4.08-2.32-6-3.51-1.1-.67-2.6-1.4-1.85-3,.88-1.86,2.43-.71,3.3,0C250.46,119,255.58,118.75,252.94,123.9Z"/><line class="cls-4" x1="193.48" y1="110.34" x2="193.34" y2="115.33"/><line class="cls-5" x1="192.99" y1="128.72" x2="192.41" y2="151.04"/><polyline class="cls-4" points="192.41 151.04 192.28 156.04 196.5 158.72"/><line class="cls-6" x1="210.22" y1="167.45" x2="233.1" y2="182"/><line class="cls-4" x1="233.1" y1="182" x2="237.32" y2="184.69"/><line class="cls-7" x1="158.41" y1="175.86" x2="192.28" y2="156.82"/></svg>